<?xml version="1.0" encoding="UTF-8"?>
<svg version="1.2" viewBox="0 0 144.29 160.93" xmlns="http://www.w3.org/2000/svg" xmlns:xlink="http://www.w3.org/1999/xlink">
<g transform="translate(-414.56 -123)" image-rendering="auto">
<g>
<path d="m473.22 281.93c-1.6587-5.6055-4.1006-14.519-5.4216-19.79-3.9053-15.583-5.3859-26.521-4.7462-35.062 0.46243-6.1743 1.0462-8.8352 3.4384-15.674 1.2623-3.6084 2.4758-8.468 2.7566-11.039 0.13615-1.2465 0.1028-1.5038-0.19497-1.5038-0.23307 0-0.76233 0.9929-1.507 2.8271-3.8214 9.4126-9.6278 18.411-19.195 29.745-2.2475 2.6628-5.2362 6.3003-6.6417 8.0834-3.3535 4.2546-4.6033 5.54-5.3866 5.54-0.47388 0-0.97216 0.43257-2.18 1.8925-1.9973 2.4142-3.2508 3.4325-5.5104 4.4765-1.4407 0.66563-2.1375 1.1874-3.3842 2.5339-1.7149 1.8522-4.9449 6.2522-6.7687 9.2206-1.3351 2.173-1.9329 2.5814-2.8748 1.9643-1.0976-0.71921-0.86722-1.5882 0.84551-3.1888 1.6688-1.5594 5.4224-5.9846 7.3201-8.6295 1.066-1.4858 1.2632-1.9251 1.2528-2.7908-7e-3 -0.56511 0.32775-2.0844 0.74347-3.3762 0.41572-1.2918 0.75586-2.6716 0.75586-3.0662 0-0.55002 1.6185-3.0338 6.9357-10.644 8.3402-11.937 15.045-21.614 17.129-24.724 0.84254-1.2572 2.3304-3.3589 3.3063-4.6705 3.4728-4.6674 4.6564-8.1135 5.8099-16.916 0.87528-6.6795 2.9838-14.646 4.8897-18.474 1.6516-3.3172 3.6824-4.7351 10.853-7.5776 2.9217-1.1582 5.1193-2.6357 6.0803-4.0878 0.56964-0.8608 0.62734-1.1324 0.51163-2.4085-0.14897-1.6429-0.94262-3.4708-1.7314-3.9875-0.2955-0.19362-1.1764-0.51612-1.9575-0.71667-2.327-0.59745-3.922-1.4852-4.3749-2.435-0.37351-0.78325-0.36942-0.90242 0.0713-2.0797 0.29203-0.78008 0.47942-1.9262 0.49922-3.0534 0.0175-0.99249 0.11244-2.2967 0.21113-2.8983 0.15984-0.97431 0.109-1.1775-0.46546-1.8602-0.42633-0.50668-0.59496-0.92378-0.49753-1.2307 0.17672-0.55681 1.2949-1.439 2.7751-2.1896 2.1404-1.0853 2.8832-1.9411 3.4914-4.0226 0.2766-0.94672 0.5865-1.4169 1.2646-1.9187 0.49401-0.36559 1.4396-1.1859 2.1012-1.8229 2.6285-2.5307 6.0445-3.5373 9.2668-2.7308 2.0904 0.52319 5.1818 2.0658 6.5455 3.2662 0.61029 0.53721 2.0091 1.3891 3.1085 1.8932l1.9989 0.91646 1.1574-0.71947c1.3291-0.82621 3.2349-1.0978 4.5826-0.65299 1.0875 0.3589 2.8032 1.8696 3.7547 3.3062l0.74371 1.1228v3.5363c0 6.1145-0.88466 9.3797-3.0601 11.295-2.0718 1.8237-4.481 2.0268-7.271 0.61305-0.66103-0.33497-1.3304-0.60904-1.4874-0.60904-0.15703 0-0.86431 0.54741-1.5717 1.2165-1.8343 1.7348-3.0665 2.2234-5.9182 2.347l-2.3459 0.1016 2e-3 0.75398c5e-3 1.752 2.0086 4.4908 4.0606 5.552 0.41227 0.21318 2.6713 1.0444 5.02 1.8472 5.5952 1.9123 7.9448 3.0402 9.0805 4.3587 1.5113 1.7545 2.8666 5.0185 6.2278 14.998 3.2293 9.5877 4.6814 13.527 5.8007 15.736 0.32231 0.63604 1.5714 3.4152 2.7759 6.1759 5.8489 13.407 13.395 25.302 19.216 30.289 1.0339 0.88589 2.0696 1.932 2.3015 2.3247s0.99897 1.0832 1.7044 1.5345 1.369 0.95712 1.4745 1.1241c0.20878 0.3304 0.5957 3.3312 0.62857 4.875 0.0112 0.52933-0.12746 1.3046-0.30829 1.7227-0.73314 1.6954 0.53074 3.6478 3.7262 5.7564 1.9292 1.273 3.5441 2.7603 3.8012 3.5009 0.31543 0.90867-1.7017 2.3562-3.3001 2.3682-1.0544 8e-3 -2.6566-0.86656-3.4189-1.8661-0.53608-0.70285-0.70931-1.2459-0.84261-2.6414-0.28539-2.9878-1.6397-4.6344-4.5139-5.4879-0.85895-0.25508-1.662-0.73442-2.4229-1.4461-0.62602-0.58552-1.2952-1.0646-1.4872-1.0646s-0.83035-0.31136-1.4187-0.6919c-2.3114-1.4951-4.9456-4.8196-10.656-13.449-11.631-17.576-20.203-32.701-22.124-39.041-1.0203-3.3663-1.4161-4.3419-1.9367-4.7737-0.61206-0.5076-1.0412-7e-3 -2.3641 2.7571-2.4384 5.0949-3.0447 10.216-2.1055 17.784 0.53095 4.2783 2.032 10.752 3.7005 15.959 1.3084 4.0832 1.4491 5.1631 1.4316 10.989-0.0333 11.057-1.5938 20.605-7.0001 42.827-1.1268 4.6316-2.1046 8.6647-2.1729 8.9625l-0.12421 0.54136h-23.984z" fill-opacity=".98913" stroke-width=".75"/>
</g>
</g>
</svg>
